<?xml version="1.0" standalone="no"?>
<!DOCTYPE svg PUBLIC "-//W3C//DTD SVG 20010904//EN"
 "http://www.w3.org/TR/2001/REC-SVG-20010904/DTD/svg10.dtd">
<svg version="1.0" xmlns="http://www.w3.org/2000/svg"
 width="1024.000000pt" height="1024.000000pt" viewBox="0 0 1024.000000 1024.000000"
 preserveAspectRatio="xMidYMid meet">
<metadata>
Created by potrace 1.14, written by Peter Selinger 2001-2017
</metadata>
<g transform="translate(0.000000,1024.000000) scale(0.100000,-0.100000)"
fill="#000000" stroke="none">
<path d="M4849 9950 c-99 -12 -255 -57 -334 -95 -38 -19 -110 -64 -160 -100
-49 -36 -196 -126 -325 -200 -129 -73 -257 -150 -285 -171 -179 -136 -612
-548 -672 -640 -23 -36 -43 -130 -34 -162 19 -63 115 -220 183 -298 18 -20 33
-44 34 -53 2 -9 23 -34 48 -56 24 -22 60 -67 78 -100 19 -33 40 -60 48 -60 8
0 21 -8 29 -19 8 -10 53 -59 100 -108 47 -50 94 -102 103 -116 10 -15 26 -33
36 -42 25 -20 125 -140 156 -187 20 -31 27 -60 36 -148 16 -167 41 -296 66
-340 22 -41 54 -181 79 -344 16 -105 32 -136 74 -146 31 -7 81 -47 81 -65 0
-6 -4 -9 -9 -5 -18 10 -20 -11 -4 -41 21 -39 28 -100 12 -109 -7 -5 -16 -1
-21 9 -17 30 -50 35 -88 15 -19 -11 -43 -19 -53 -19 -10 0 -21 -10 -26 -22
l-8 -22 -12 22 c-14 27 -31 29 -31 3 0 -12 13 -25 35 -35 45 -22 37 -36 -15
-26 -64 12 -88 -25 -72 -112 l9 -44 -136 -145 c-75 -80 -268 -273 -429 -428
-301 -292 -373 -372 -391 -437 -10 -35 -7 -46 29 -124 42 -92 70 -222 70 -325
0 -61 -28 -239 -56 -350 -34 -138 -57 -226 -85 -320 -16 -56 -32 -140 -36
-190 -6 -87 -8 -92 -60 -171 l-53 -82 5 -89 c3 -48 13 -132 20 -185 34 -228
47 -305 55 -343 5 -22 20 -112 35 -200 14 -88 34 -205 44 -260 11 -55 29 -163
41 -240 12 -77 28 -178 35 -225 8 -47 17 -125 20 -175 3 -49 13 -133 22 -186
l16 -96 -26 -51 c-55 -109 -52 -159 11 -199 15 -10 35 -27 44 -39 9 -11 42
-46 72 -77 31 -31 56 -61 56 -67 0 -5 8 -10 18 -10 11 0 26 -8 35 -17 21 -24
83 -144 97 -190 15 -45 102 -202 135 -241 16 -20 24 -46 29 -101 11 -106 46
-189 98 -229 43 -33 58 -39 58 -22 0 6 -4 10 -10 10 -5 0 -10 5 -10 11 0 7 13
8 39 4 50 -8 189 10 271 37 45 15 77 33 104 60 l39 38 -5 83 c-6 93 -22 138
-67 189 -23 27 -31 45 -31 75 0 21 -5 44 -11 50 -9 9 -8 54 0 175 7 90 13 204
14 253 l2 90 45 -1 c39 -2 220 -49 220 -59 0 -2 -26 -1 -57 1 -58 5 -102 -8
-110 -33 -5 -15 71 -53 106 -53 14 0 33 -4 41 -10 16 -10 12 -16 -71 -105 -43
-45 -48 -56 -57 -120 -8 -55 -7 -75 3 -91 14 -22 95 -90 95 -80 0 3 66 -28
148 -69 345 -173 619 -221 916 -160 146 30 312 84 441 144 83 39 133 58 258
97 152 48 148 49 129 -31 l-16 -65 29 -30 c38 -40 99 -61 176 -63 55 -2 74 3
133 33 85 43 101 73 110 207 5 84 24 159 49 191 7 9 17 8 42 -8 35 -22 65 -26
65 -10 0 6 -10 10 -22 10 -13 0 -34 9 -48 20 l-25 19 19 33 c11 18 30 52 43
75 42 74 154 410 214 645 21 84 22 86 46 77 32 -12 36 -11 30 4 -3 8 7 21 24
31 35 21 36 29 5 53 -13 10 -38 41 -56 68 -19 28 -48 67 -67 88 -19 21 -33 48
-33 62 0 14 -18 116 -41 228 -23 111 -47 234 -54 272 -6 39 -19 106 -28 150
-8 44 -20 116 -27 160 -6 44 -14 88 -16 98 -5 14 1 17 36 17 23 0 55 8 71 17
25 15 29 22 26 58 -1 25 -12 54 -28 75 -38 50 -49 75 -49 108 0 28 2 29 56 35
31 3 58 7 60 9 7 7 6 184 -1 223 -9 48 -18 63 -79 135 -26 31 -46 64 -46 77 0
13 -6 36 -14 51 -7 15 -17 59 -21 97 -12 120 -56 367 -76 426 -45 135 -81 332
-84 455 -1 67 -5 126 -9 132 -7 12 13 171 26 196 10 19 2 136 -13 189 -14 49
-48 76 -124 99 -65 20 -77 28 -181 128 -61 59 -145 133 -187 165 l-76 57 96
91 c94 89 221 243 430 518 241 317 353 473 353 489 0 16 -56 174 -80 225 -5
11 -19 45 -32 75 -12 30 -32 70 -44 88 -13 18 -30 54 -39 80 -9 26 -39 94 -67
152 -28 58 -70 155 -93 215 -128 328 -397 837 -591 1118 -35 51 -81 124 -103
162 -22 39 -70 108 -106 155 -86 110 -265 377 -265 395 0 23 -47 71 -87 88
-21 9 -63 26 -93 37 -39 14 -61 29 -73 50 -10 17 -43 49 -73 71 -48 37 -61 42
-116 44 -35 2 -93 0 -129 -5z m141 -95 c-7 -8 -17 -12 -22 -9 -6 4 -5 10 3 15
22 14 33 10 19 -6z m150 -89 c0 -3 -4 -8 -10 -11 -5 -3 -10 -1 -10 4 0 6 5 11
10 11 6 0 10 -2 10 -4z m-30 -32 c0 -16 -9 -18 -30 -4 -13 8 -12 10 3 10 11 0
15 4 11 12 -4 7 -3 8 4 4 7 -4 12 -14 12 -22z m35 -44 c3 -5 2 -10 -4 -10 -5
0 -13 5 -16 10 -3 6 -2 10 4 10 5 0 13 -4 16 -10z m110 -14 c8 3 21 1 30 -4
16 -8 16 -10 1 -15 -9 -4 -16 -2 -16 4 0 5 -7 9 -16 7 -10 -2 -18 3 -20 10 -1
7 0 8 2 3 3 -6 11 -8 19 -5z m-208 -48 c-3 -8 -6 -5 -6 6 -1 11 2 17 5 13 3
-3 4 -12 1 -19z m337 -13 c7 -19 -3 -19 -28 0 -19 15 -19 15 1 15 11 0 23 -7
27 -15z m22 -490 c20 -8 56 -33 81 -55 28 -25 49 -36 53 -30 13 20 124 -112
185 -220 119 -211 137 -244 164 -317 20 -53 22 -73 16 -129 -4 -40 -10 -62
-15 -54 -4 7 -8 -20 -9 -60 -1 -50 -6 -79 -16 -90 -8 -9 -15 -21 -15 -27 0 -6
-12 -45 -26 -87 -27 -81 -27 -149 1 -160 7 -2 21 -22 31 -43 10 -21 26 -44 35
-51 30 -21 79 -117 79 -154 0 -36 -15 -49 -128 -114 -32 -18 -34 -18 -43 -1
-14 24 -29 21 -26 -5 1 -15 -4 -23 -13 -24 -26 -2 -50 -16 -50 -29 0 -8 -7
-21 -16 -30 -14 -14 -16 -30 -11 -98 8 -95 60 -284 92 -331 12 -17 19 -38 17
-45 -7 -20 -92 -52 -137 -52 -57 0 -103 -17 -156 -55 -56 -41 -75 -42 -83 -9
-5 21 -12 25 -41 25 -32 0 -37 -4 -58 -47 -17 -35 -28 -47 -41 -45 -10 2 -15
-1 -12 -6 8 -14 -48 -32 -65 -21 -16 10 -10 16 44 48 l37 23 0 -24 1 -23 14
25 c8 14 14 28 15 33 0 14 -61 7 -96 -12 -37 -20 -63 -20 -131 1 -38 11 -38
12 -18 64 14 35 14 37 0 20 -19 -25 -19 -9 0 24 8 14 14 34 15 45 0 17 -2 17
-17 -5 -9 -14 -38 -50 -65 -81 -26 -31 -48 -66 -48 -78 0 -34 -27 -36 -54 -4
-31 35 -32 65 -5 182 19 82 26 98 77 161 36 44 59 65 64 57 4 -6 9 -9 12 -6 3
3 -3 15 -13 26 -13 13 -18 29 -14 42 3 13 -7 49 -27 92 -17 38 -33 77 -34 87
-3 23 -63 52 -109 52 -20 0 -68 -10 -105 -22 -42 -15 -85 -22 -114 -20 -42 3
-47 6 -53 31 -9 40 16 93 56 123 123 92 288 101 389 22 25 -20 48 -43 51 -52
5 -13 9 -10 23 15 17 34 118 362 130 423 9 45 37 110 47 110 4 0 19 -4 33 -10
22 -8 26 -7 26 9 0 18 -24 46 -75 89 -42 35 -59 33 -129 -14 -86 -58 -306
-256 -354 -319 -25 -33 -49 -62 -52 -65 -3 -3 -19 -22 -34 -42 -30 -40 -49
-42 -42 -5 2 13 7 58 11 102 9 93 39 257 51 276 4 8 9 20 10 29 0 8 11 53 22
100 12 47 31 135 42 195 12 61 30 128 41 150 10 22 19 45 19 51 0 6 23 65 50
130 65 153 138 247 231 293 56 28 71 31 156 31 60 0 106 -5 129 -15z m544
-370 c0 -12 -19 -12 -23 0 -4 9 -1 12 9 8 7 -3 14 -7 14 -8z m45 -34 c-3 -2 0
-10 5 -16 8 -9 6 -14 -5 -19 -8 -3 -15 -10 -15 -15 0 -6 7 -7 17 -4 10 4 14 2
10 -4 -4 -6 -15 -13 -25 -15 -14 -4 -18 0 -18 16 1 12 7 25 14 29 11 7 10 12
-5 22 -17 13 -17 14 4 12 12 -1 20 -3 18 -6z m28 -109 c-2 -10 -13 -19 -25
-19 -20 -2 -20 -2 -2 17 24 24 33 25 27 2z m15 -61 c10 -6 9 -11 -5 -22 -10
-7 -15 -9 -11 -5 4 5 3 15 -3 23 -13 14 -1 17 19 4z m46 -43 c9 -12 16 -17 16
-10 0 18 17 6 31 -21 12 -22 12 -22 -10 -3 -11 11 -21 15 -21 10 0 -5 -7 0
-15 10 -8 11 -15 15 -15 8 0 -18 -37 -35 -46 -20 -4 6 -3 8 3 5 6 -4 19 3 29
15 18 20 18 21 1 15 -11 -4 -16 -3 -12 3 10 16 23 12 39 -12z m76 -88 c0 -5
-2 -10 -4 -10 -3 0 -8 5 -11 10 -3 6 -1 10 4 10 6 0 11 -4 11 -10z m190 -359
c0 -11 -3 -11 -15 -1 -8 7 -15 20 -15 29 0 9 -7 26 -15 37 -8 12 -11 24 -8 28
8 8 52 -71 53 -93z m-2910 -30 c-1 -10 -50 53 -50 63 0 6 11 -5 25 -24 14 -19
25 -36 25 -39z m3023 -251 c3 -11 1 -18 -4 -14 -5 3 -9 12 -9 20 0 20 7 17 13
-6z m-856 -886 c-3 -3 -12 -4 -19 -1 -8 3 -5 6 6 6 11 1 17 -2 13 -5z m-1634
-659 c-8 -22 -22 -18 -16 5 3 11 9 17 14 15 4 -3 6 -12 2 -20z m-14 -62 c-13
-16 -27 -32 -31 -37 -4 -5 -7 7 -6 27 1 34 4 37 31 37 l30 0 -24 -27z m1721
-538 c-18 -19 -36 -32 -39 -29 -5 5 57 63 68 64 3 0 -10 -16 -29 -35z m264
-861 c71 -143 96 -202 92 -219 -3 -13 -45 -65 -94 -115 -122 -126 -146 -124
-196 22 -14 42 -26 85 -27 95 -1 13 -3 11 -9 -7 -5 -17 -7 -2 -7 46 0 39 -3
80 -7 91 -4 13 6 46 29 94 19 40 35 85 35 99 0 14 4 30 8 35 10 15 63 55 72
55 4 0 51 -88 104 -196z m536 -148 c0 -2 -7 -7 -16 -10 -8 -3 -12 -2 -9 4 6
10 25 14 25 6z m257 -968 c-3 -7 -5 -2 -5 12 0 14 2 19 5 13 2 -7 2 -19 0 -25z
m33 -82 c-14 -39 -22 -28 -10 15 6 18 11 47 12 64 1 23 2 20 5 -11 2 -22 -1
-53 -7 -68z m-30 11 c0 -7 -7 -22 -16 -33 -14 -18 -15 -18 -4 4 6 12 8 27 5
32 -3 6 -1 10 4 10 6 0 11 -6 11 -13z m-2813 -535 c21 -38 78 -212 87 -267 2
-16 9 -46 15 -65 6 -19 29 -145 51 -280 22 -135 52 -290 65 -345 23 -92 82
-366 106 -494 6 -29 7 -57 2 -61 -10 -9 -192 -60 -214 -60 -22 0 -29 29 -29
120 0 41 -9 149 -20 240 -37 302 -45 436 -31 546 6 54 13 156 15 225 1 69 6
131 11 139 5 8 4 11 -2 7 -7 -4 -16 23 -24 73 -12 78 -13 79 -38 74 -24 -4
-23 -4 4 9 21 10 32 11 38 3 6 -7 7 -6 4 4 -2 8 -13 14 -25 13 -12 -2 -22 5
-25 17 -4 14 0 20 11 20 11 0 13 3 6 8 -14 10 -26 42 -15 42 5 0 7 9 4 21 -5
18 -11 20 -42 14 -20 -4 -43 -12 -51 -18 -13 -10 -13 -10 -1 6 7 9 19 17 26
17 7 0 15 9 18 20 7 28 30 17 54 -28z m-17 -12 c0 -5 -4 -10 -10 -10 -5 0 -10
5 -10 10 0 6 5 10 10 10 6 0 10 -4 10 -10z m-86 -28 c3 -5 -1 -9 -9 -9 -8 0
-15 4 -15 9 0 4 4 8 9 8 6 0 12 -4 15 -8z m70 -14 c-3 -4 -9 -8 -15 -8 -5 0
-9 4 -9 8 0 5 7 9 15 9 8 0 12 -4 9 -9z m2116 -429 c-51 -18 -358 -86 -425
-94 -46 -6 -196 -41 -233 -55 -45 -17 -52 -6 -11 19 42 26 246 75 419 101 74
11 160 27 190 34 30 8 69 14 85 14 25 1 20 -3 -25 -19z m-267 -16 c-7 -2 -19
-2 -25 0 -7 3 -2 5 12 5 14 0 19 -2 13 -5z m-44 -7 c-2 -2 -24 -6 -49 -10 -31
-4 -40 -3 -30 4 13 9 89 15 79 6z m-2027 -198 c-7 -7 -40 -22 -74 -34 -49 -18
-66 -21 -82 -11 -19 10 -17 12 24 18 25 4 65 14 90 22 58 19 56 19 42 5z m-37
-158 c-3 -5 -12 -10 -18 -10 -7 0 -6 4 3 10 19 12 23 12 15 0z m3210 -147 c3
-9 4 -17 3 -18 -2 -2 -30 22 -63 52 l-60 56 57 -38 c31 -20 59 -44 63 -52z
m65 32 c13 -14 21 -25 18 -25 -2 0 -15 11 -28 25 -13 14 -21 25 -18 25 2 0 15
-11 28 -25z m-2861 -664 c9 -6 10 -10 2 -16 -16 -9 -44 2 -36 15 8 12 16 12
34 1z m181 -121 c0 -5 -7 -7 -15 -4 -8 4 -15 8 -15 10 0 2 7 4 15 4 8 0 15 -4
15 -10z m-40 -10 c18 -12 2 -12 -25 0 -13 6 -15 9 -5 9 8 0 22 -4 30 -9z m83
-27 c-7 -2 -19 -2 -25 0 -7 3 -2 5 12 5 14 0 19 -2 13 -5z m1951 -322 c8 -12
-48 -34 -71 -28 -14 3 -10 8 17 20 41 19 47 20 54 8z"/>
<path d="M5370 9047 c0 -3 26 -20 57 -37 118 -67 311 -300 376 -455 14 -33 35
-94 48 -135 12 -41 24 -69 26 -63 4 11 -33 123 -79 243 -42 112 -238 346 -340
407 -56 34 -88 48 -88 40z"/>
<path d="M5560 8974 c0 -13 64 -83 71 -78 11 6 -2 31 -31 62 -19 21 -40 29
-40 16z"/>
<path d="M5686 8133 c-2 -10 -7 -32 -11 -50 -3 -18 -19 -48 -35 -67 -18 -23
-32 -59 -41 -101 -7 -36 -16 -65 -21 -65 -4 0 -8 -45 -8 -99 0 -125 8 -136 89
-126 43 5 62 12 79 32 26 29 27 28 -12 158 -21 70 -27 112 -28 191 0 55 3 110
6 122 4 13 3 22 -3 22 -5 0 -12 -8 -15 -17z"/>
<path d="M5369 7784 c2 -33 0 -45 -8 -39 -8 5 -10 -1 -5 -21 5 -21 4 -26 -7
-22 -16 6 -19 -28 -5 -50 4 -7 3 -12 -3 -12 -5 0 -15 8 -20 18 -8 14 -11 14
-12 2 -1 -8 -1 -19 0 -24 1 -5 -5 -6 -13 -3 -21 8 -32 -37 -17 -69 14 -31 14
-37 1 -29 -14 9 -15 -3 -6 -79 6 -58 29 -93 77 -120 49 -27 82 -16 116 37 37
58 73 160 73 207 0 41 -12 52 -28 24 -6 -11 -9 0 -9 35 0 32 -9 72 -27 114
-23 56 -32 66 -58 71 -52 10 -53 9 -49 -40z m-69 -180 c0 -8 -4 -12 -10 -9 -5
3 -10 10 -10 16 0 5 5 9 10 9 6 0 10 -7 10 -16z m199 -36 c0 -7 -4 -22 -9 -33
-7 -17 -9 -15 -9 13 -1 17 4 32 9 32 6 0 10 -6 9 -12z"/>
<path d="M3960 2885 c0 -8 4 -15 10 -15 5 0 7 7 4 15 -4 8 -8 15 -10 15 -2 0
-4 -7 -4 -15z"/>
<path d="M3971 2822 c-1 -20 18 -52 32 -52 8 0 8 3 2 8 -6 4 -16 18 -22 32 -6
14 -12 19 -12 12z"/>
<path d="M10080 80 l0 -80 80 0 80 0 0 80 0 80 -80 0 -80 0 0 -80z"/>
</g>
</svg>
